<?xml version="1.0" encoding="utf-8"?>
<!-- Generator: Adobe Illustrator 17.1.0, SVG Export Plug-In . SVG Version: 6.00 Build 0)  -->
<!DOCTYPE svg PUBLIC "-//W3C//DTD SVG 1.1//EN" "http://www.w3.org/Graphics/SVG/1.1/DTD/svg11.dtd">
<svg version="1.1" id="Layer_1" xmlns="http://www.w3.org/2000/svg" xmlns:xlink="http://www.w3.org/1999/xlink" x="0px" y="0px"
	 viewBox="0 0 90 90" enable-background="new 0 0 90 90" xml:space="preserve">
<path id="LinkedIn__x28_alt_x29__3_" fill="#808285" d="M83.4,0H6.7C3,0,0,2.9,0,6.4v77.1C0,87.1,3,90,6.7,90h76.7
	c3.7,0,6.6-2.9,6.6-6.5V6.4C90,2.9,87,0,83.4,0z M27.3,75.3H13.7V34.7h13.6V75.3z M20.5,29.2L20.5,29.2c-4.7,0-7.6-3.1-7.6-7
	c0-4,3-7,7.7-7c4.7,0,7.5,3,7.6,7C28.2,26,25.2,29.2,20.5,29.2z M76.3,75.3H62.7V53.6c0-5.5-2-9.2-6.9-9.2c-3.8,0-6,2.5-7,4.9
	c-0.4,0.9-0.5,2.1-0.5,3.3v22.7H34.8c0,0,0.2-36.8,0-40.6h13.6v5.8c1.8-2.8,5-6.7,12.2-6.7c8.9,0,15.7,5.8,15.7,18.3V75.3z
	 M48.3,40.6c0,0,0.1-0.1,0.1-0.1L48.3,40.6L48.3,40.6z"/>
</svg>
